# Rhino

g object_1
v 0.7852407693862915 0 -239.5146179199219
v 0.7852407693862915 0.4963620603084564 -239.5146179199219
v -0.7852407693862915 0 -239.5146179199219
v -0.7852407693862915 0.4963620603084564 -239.5146179199219
v -0.7852407693862915 0 -239.5146179199219
v -0.7852407693862915 0.4963620603084564 -239.5146179199219
v -0.7852407693862915 0 -238.0095825195312
v -0.7852407693862915 0.4963620603084564 -238.0095825195312
v -0.7852407693862915 0 -238.0095825195312
v -0.7852407693862915 0.4963620603084564 -238.0095825195312
v -1.439608097076416 0 -238.0095825195312
v -1.439608097076416 0.4963620603084564 -238.0095825195312
v -1.439608097076416 0 -238.0095825195312
v -1.439608097076416 0.4963620603084564 -238.0095825195312
v 4.745372983450125e-10 0 -236.6354064941406
v 4.745372983450125e-10 0.4963620603084564 -236.6354064941406
v 4.745372983450125e-10 0 -236.6354064941406
v 4.745372983450125e-10 0.4963620603084564 -236.6354064941406
v 1.439608097076416 0 -238.0095825195312
v 1.439608097076416 0.4963620603084564 -238.0095825195312
v 1.439608097076416 0 -238.0095825195312
v 1.439608097076416 0.4963620603084564 -238.0095825195312
v 0.7852407693862915 0 -238.0095825195312
v 0.7852407693862915 0.4963620603084564 -238.0095825195312
v 0.7852407693862915 0 -238.0095825195312
v 0.7852407693862915 0.4963620603084564 -238.0095825195312
v 0.7852407693862915 0 -239.5146179199219
v 0.7852407693862915 0.4963620603084564 -239.5146179199219
v 0.7852407693862915 0 -239.5146179199219
v -0.7852407693862915 0 -239.5146179199219
v -0.7852407693862915 0 -238.0095825195312
v -1.439608097076416 0 -238.0095825195312
v 4.745372983450125e-10 0 -236.6354064941406
v 1.439608097076416 0 -238.0095825195312
v 0.7852407693862915 0 -238.0095825195312
v 0.7852407693862915 0.4963620603084564 -239.5146179199219
v -0.7852407693862915 0.4963620603084564 -239.5146179199219
v -0.7852407693862915 0.4963620603084564 -238.0095825195312
v -1.439608097076416 0.4963620603084564 -238.0095825195312
v 4.745372983450125e-10 0.4963620603084564 -236.6354064941406
v 1.439608097076416 0.4963620603084564 -238.0095825195312
v 0.7852407693862915 0.4963620603084564 -238.0095825195312
vt 0 0
vt 0 0.5396782159805298
vt 0.1591220498085022 0
vt 0.1591220498085022 0.5396782159805298
vt 0.1591220498085022 0
vt 0.1591220498085022 0.5396782159805298
vt 0.3116140067577362 0
vt 0.3116140067577362 0.5396782159805298
vt 0.3116140067577362 0
vt 0.3116140067577362 0.5396782159805298
vt 0.3779148459434509 0
vt 0.3779148459434509 0.5396782159805298
vt 0.3779148459434509 0
vt 0.3779148459434509 0.5396782159805298
vt 0.5795609951019287 0
vt 0.5795609951019287 0.5396782159805298
vt 0.5795609951019287 0
vt 0.5795609951019287 0.5396782159805298
vt 0.7812072038650513 0
vt 0.7812072038650513 0.5396782159805298
vt 0.7812072038650513 0
vt 0.7812072038650513 0.5396782159805298
vt 0.8475080132484436 0
vt 0.8475080132484436 0.5396782159805298
vt 0.8475080132484436 0
vt 0.8475080132484436 0.5396782159805298
vt 1 0
vt 1 0.5396782159805298
vt 0.06630085408687592 1
vt 0.2254228889942169 1
vt 0.2254228889942169 0.7593775391578674
vt 0.291723757982254 0.7593775391578674
vt 0.145861878991127 0.5396787524223328
vt 0 0.7593775391578674
vt 0.06630085408687592 0.7593775391578674
vt 0.06630085408687592 0.5396787524223328
vt 0.2254228889942169 0.5396787524223328
vt 0.2254228889942169 0.7803012132644653
vt 0.291723757982254 0.7803012132644653
vt 0.145861878991127 1
vt 0 0.7803012132644653
vt 0.06630085408687592 0.7803012132644653
vn 0 0 -1
vn 0 0 -1
vn 0 0 -1
vn 0 0 -1
vn -1 0 0
vn -1 0 0
vn -1 0 0
vn -1 0 0
vn 0 0 -1
vn 0 0 -1
vn 0 0 -1
vn 0 0 -1
vn -0.6904757618904114 0 0.7233555316925049
vn -0.6904757618904114 0 0.7233555316925049
vn -0.6904757618904114 0 0.7233555316925049
vn -0.6904757618904114 0 0.7233555316925049
vn 0.6904757618904114 0 0.7233555316925049
vn 0.6904757618904114 0 0.7233555316925049
vn 0.6904757618904114 0 0.7233555316925049
vn 0.6904757618904114 0 0.7233555316925049
vn 0 0 -1
vn 0 0 -1
vn 0 0 -1
vn 0 0 -1
vn 1 0 0
vn 1 0 0
vn 1 0 0
vn 1 0 0
vn 0 -1 0
vn 0 -1 0
vn 0 -1 0
vn 0 -1 0
vn 0 -1 0
vn 0 -1 0
vn 0 -1 0
vn 0 1 0
vn 0 1 0
vn 0 1 0
vn 0 1 0
vn 0 1 0
vn 0 1 0
vn 0 1 0
f 1/1/1 3/3/3 4/4/4 2/2/2
f 5/5/5 7/7/7 8/8/8 6/6/6
f 9/9/9 11/11/11 12/12/12 10/10/10
f 13/13/13 15/15/15 16/16/16 14/14/14
f 17/17/17 19/19/19 20/20/20 18/18/18
f 21/21/21 23/23/23 24/24/24 22/22/22
f 25/25/25 27/27/27 28/28/28 26/26/26
f 30/30/30 29/29/29 35/35/35
f 33/33/33 35/35/35 34/34/34
f 35/35/35 33/33/33 31/31/31
f 31/31/31 33/33/33 32/32/32
f 30/30/30 35/35/35 31/31/31
f 37/37/37 42/42/42 36/36/36
f 40/40/40 41/41/41 42/42/42
f 42/42/42 38/38/38 40/40/40
f 38/38/38 39/39/39 40/40/40
f 37/37/37 38/38/38 42/42/42
